<?xml version="1.0" encoding="UTF-8" standalone="no"?>
<!DOCTYPE svg PUBLIC "-//W3C//DTD SVG 1.1//EN" "http://www.w3.org/Graphics/SVG/1.1/DTD/svg11.dtd">
<svg width="100%" height="100%" viewBox="0 0 1517 349" version="1.1" xmlns="http://www.w3.org/2000/svg" xmlns:xlink="http://www.w3.org/1999/xlink" xml:space="preserve" xmlns:serif="http://www.serif.com/" style="fill-rule:evenodd;clip-rule:evenodd;stroke-linecap:round;stroke-linejoin:round;">
    <g transform="matrix(1,0,0,1,-201.74,-334.475)">
        <g transform="matrix(2.0145,0,0,2.0145,191.049,143.123)">
            <g transform="matrix(150.813,0,0,150.813,761.126,235.996)">
            </g>
            <text x="163.001px" y="235.996px" style="font-family:'CalSans-SemiBold', 'Cal Sans';font-weight:600;font-size:150.813px;">af<tspan x="306.273px 351.366px 440.195px " y="235.996px 235.996px 235.996px ">fog</tspan>at<tspan x="671.543px " y="235.996px ">o</tspan></text>
        </g>
        <g transform="matrix(0.988498,0,0,0.988498,269.789,-74.4542)">
            <g transform="matrix(62.9722,0,0,62.9722,1468.79,765.826)">
            </g>
            <text x="1358.02px" y="765.826px" style="font-family:'HelveticaNeue-UltraLightItalic', 'Helvetica Neue';font-weight:100;font-style:italic;font-size:62.972px;">beta</text>
        </g>
        <g transform="matrix(0.145842,0,0,0.145842,183.218,385.329)">
            <path d="M1663,512C1715.67,512 1765.33,522 1812,542C1858.67,562 1899.33,589.333 1934,624C1968.67,658.667 1996.33,699.667 2017,747C2037.67,794.333 2047.67,844 2047,896C2047,949.333 2037,999 2017,1045C1997,1091 1969.67,1131.67 1935,1167C1900.33,1202.33 1859.33,1230 1812,1250C1764.67,1270 1715,1280 1663,1280L1560,1280C1530.67,1331.33 1495.67,1378.67 1455,1422C1414.33,1465.33 1369.33,1503.33 1320,1536L1599,1536C1616.33,1536 1631.33,1542.33 1644,1555C1656.67,1567.67 1663,1582.67 1663,1600C1663,1617.33 1656.67,1632.33 1644,1645C1631.33,1657.67 1616.33,1664 1599,1664L191,1664C173.667,1664 158.667,1657.67 146,1645C133.333,1632.33 127,1617.33 127,1600C127,1582.67 133.333,1567.67 146,1555C158.667,1542.33 173.667,1536 191,1536L470,1536C416,1500 368,1458.67 326,1412C284,1365.33 248,1314.67 218,1260C188,1205.33 165.667,1147 151,1085C136.333,1023 128.333,960 127,896L127,512L1663,512ZM895,1536C953.667,1536 1010.33,1528.33 1065,1513C1119.67,1497.67 1170.67,1476.33 1218,1449C1265.33,1421.67 1308.33,1388.33 1347,1349C1385.67,1309.67 1419,1266.33 1447,1219C1475,1171.67 1496.67,1120.67 1512,1066C1527.33,1011.33 1535,954.667 1535,896L1535,640L255,640L255,896C255,954.667 262.667,1011.33 278,1066C293.333,1120.67 314.667,1171.67 342,1219C369.333,1266.33 402.667,1309.33 442,1348C481.333,1386.67 524.667,1420 572,1448C619.333,1476 670.333,1497.67 725,1513C779.667,1528.33 836.333,1536 895,1536M1663,1152C1698.33,1152 1731.33,1145.33 1762,1132C1792.67,1118.67 1820,1100.33 1844,1077C1868,1053.67 1886.33,1026.67 1899,996C1911.67,965.333 1918.33,932 1919,896C1919,860.667 1912.33,827.667 1899,797C1885.67,766.333 1867.33,739 1844,715C1820.67,691 1793.67,672.667 1763,660C1732.33,647.333 1699,640.667 1663,640C1663,683.333 1663.33,726.667 1664,770C1664.67,813.333 1664.33,856.333 1663,899C1661.67,941.667 1657.67,984 1651,1026C1644.33,1068 1633.67,1110 1619,1152L1663,1152Z" style="fill-rule:nonzero;"/>
        </g>
        <g transform="matrix(4.14915,0,0,4.14915,-4295.28,-253.898)">
            <g transform="matrix(1,0,0,1,1119.69,140.806)">
                <path d="M4.5,16.5C3,17.76 2.5,21.5 2.5,21.5C2.5,21.5 6.24,21 7.5,19.5C8.21,18.66 8.2,17.37 7.41,16.59C6.609,15.826 5.347,15.787 4.5,16.5Z" style="fill:none;fill-rule:nonzero;stroke:black;stroke-width:2px;"/>
            </g>
            <g transform="matrix(1,0,0,1,1119.69,140.806)">
                <path d="M12,15L9,12C9.532,10.619 10.202,9.296 11,8.05C13.367,4.266 17.537,1.972 22,2C22,4.72 21.22,9.5 16,13C14.737,13.799 13.397,14.469 12,15Z" style="fill:none;fill-rule:nonzero;stroke:black;stroke-width:2px;"/>
            </g>
            <g transform="matrix(1,0,0,1,1119.69,140.806)">
                <path d="M9,12L4,12C4,12 4.55,8.97 6,8C7.62,6.92 11,8 11,8" style="fill:none;fill-rule:nonzero;stroke:black;stroke-width:2px;"/>
            </g>
            <g transform="matrix(1,0,0,1,1119.69,140.806)">
                <path d="M12,15L12,20C12,20 15.03,19.45 16,18C17.08,16.38 16,13 16,13" style="fill:none;fill-rule:nonzero;stroke:black;stroke-width:2px;"/>
            </g>
        </g>
        <g transform="matrix(1.09253,-0.0732801,-0.0727922,1.0583,18.2588,-16.0358)">
            <path d="M273.572,481.256L341.71,406.706" style="fill:none;stroke:black;stroke-width:3.99px;stroke-miterlimit:1.5;"/>
        </g>
        <g transform="matrix(1.07115,-0.0528858,-0.0528858,1.03931,46.9015,10.3407)">
            <path d="M287.31,460L341.71,406.706" style="fill:none;stroke:black;stroke-width:3.99px;stroke-miterlimit:1.5;"/>
        </g>
    </g>
</svg>
