<?xml version="1.0" encoding="UTF-8" standalone="no"?>
<!DOCTYPE svg PUBLIC "-//W3C//DTD SVG 1.1//EN" "http://www.w3.org/Graphics/SVG/1.1/DTD/svg11.dtd">
<svg width="100%" height="100%" viewBox="0 0 1517 349" version="1.1" xmlns="http://www.w3.org/2000/svg" xmlns:xlink="http://www.w3.org/1999/xlink" xml:space="preserve" xmlns:serif="http://www.serif.com/" style="fill-rule:evenodd;clip-rule:evenodd;stroke-linecap:round;stroke-linejoin:round;">
    <g transform="matrix(1,0,0,1,-201.74,-334.475)">
        <g transform="matrix(2.0145,0,0,2.0145,191.049,143.123)">
            <g transform="matrix(150.813,0,0,150.813,163.001,235.996)">
                <path d="M0.277,0.013C0.37,0.013 0.417,-0.026 0.445,-0.085L0.445,-0L0.576,-0L0.576,-0.52L0.442,-0.52L0.442,-0.438C0.414,-0.494 0.367,-0.531 0.277,-0.531C0.134,-0.531 0.02,-0.408 0.02,-0.258C0.02,-0.108 0.134,0.013 0.277,0.013ZM0.155,-0.259C0.155,-0.34 0.213,-0.409 0.299,-0.409C0.388,-0.409 0.445,-0.339 0.445,-0.258C0.445,-0.177 0.388,-0.109 0.299,-0.109C0.213,-0.109 0.155,-0.18 0.155,-0.259Z" style="fill-rule:nonzero;"/>
            </g>
            <g transform="matrix(150.813,0,0,150.813,255.902,235.996)">
                <path d="M0.078,-0.555L0.078,-0.52L0.005,-0.52L0.005,-0.405L0.078,-0.405L0.078,-0L0.213,-0L0.213,-0.405L0.319,-0.405L0.319,-0.52L0.213,-0.52L0.213,-0.553C0.213,-0.594 0.232,-0.615 0.272,-0.615L0.307,-0.615L0.307,-0.73L0.251,-0.73C0.146,-0.73 0.078,-0.66 0.078,-0.555Z" style="fill-rule:nonzero;"/>
            </g>
            <g transform="matrix(150.813,0,0,150.813,306.273,235.996)">
                <path d="M0.078,-0.555L0.078,-0.52L0.005,-0.52L0.005,-0.405L0.078,-0.405L0.078,-0L0.213,-0L0.213,-0.405L0.319,-0.405L0.319,-0.52L0.213,-0.52L0.213,-0.553C0.213,-0.594 0.232,-0.615 0.272,-0.615L0.307,-0.615L0.307,-0.73L0.251,-0.73C0.146,-0.73 0.078,-0.66 0.078,-0.555Z" style="fill-rule:nonzero;"/>
            </g>
            <g transform="matrix(150.813,0,0,150.813,351.366,235.996)">
                <path d="M0.297,0.013C0.458,0.013 0.574,-0.109 0.574,-0.259C0.574,-0.409 0.458,-0.532 0.297,-0.532C0.136,-0.532 0.02,-0.409 0.02,-0.259C0.02,-0.109 0.136,0.013 0.297,0.013ZM0.155,-0.259C0.155,-0.34 0.211,-0.409 0.297,-0.409C0.383,-0.409 0.439,-0.34 0.439,-0.259C0.439,-0.178 0.383,-0.11 0.297,-0.11C0.211,-0.11 0.155,-0.178 0.155,-0.259Z" style="fill-rule:nonzero;"/>
            </g>
            <g transform="matrix(150.813,0,0,150.813,440.195,235.996)">
                <path d="M0.293,0.213C0.452,0.213 0.564,0.114 0.564,-0.046L0.564,-0.52L0.431,-0.52L0.431,-0.449C0.404,-0.5 0.358,-0.533 0.272,-0.533C0.129,-0.533 0.02,-0.415 0.02,-0.265C0.02,-0.115 0.129,0.003 0.272,0.003C0.356,0.003 0.401,-0.029 0.429,-0.077L0.429,-0.054C0.429,0.029 0.366,0.088 0.294,0.088C0.229,0.088 0.177,0.072 0.128,0.016L0.044,0.115C0.106,0.188 0.188,0.213 0.293,0.213ZM0.155,-0.265C0.155,-0.346 0.206,-0.41 0.294,-0.41C0.383,-0.41 0.435,-0.346 0.435,-0.265C0.435,-0.184 0.383,-0.12 0.294,-0.12C0.206,-0.12 0.155,-0.186 0.155,-0.265Z" style="fill-rule:nonzero;"/>
            </g>
            <g transform="matrix(150.813,0,0,150.813,531.286,235.996)">
                <path d="M0.277,0.013C0.37,0.013 0.417,-0.026 0.445,-0.085L0.445,-0L0.576,-0L0.576,-0.52L0.442,-0.52L0.442,-0.438C0.414,-0.494 0.367,-0.531 0.277,-0.531C0.134,-0.531 0.02,-0.408 0.02,-0.258C0.02,-0.108 0.134,0.013 0.277,0.013ZM0.155,-0.259C0.155,-0.34 0.213,-0.409 0.299,-0.409C0.388,-0.409 0.445,-0.339 0.445,-0.258C0.445,-0.177 0.388,-0.109 0.299,-0.109C0.213,-0.109 0.155,-0.18 0.155,-0.259Z" style="fill-rule:nonzero;"/>
            </g>
            <g transform="matrix(150.813,0,0,150.813,624.187,235.996)">
                <path d="M0.237,-0L0.311,-0L0.311,-0.12L0.255,-0.12C0.229,-0.12 0.213,-0.135 0.213,-0.168L0.213,-0.405L0.323,-0.405L0.323,-0.52L0.213,-0.52L0.213,-0.639L0.078,-0.625L0.078,-0.52L0.005,-0.52L0.005,-0.405L0.078,-0.405L0.078,-0.161C0.078,-0.048 0.134,-0 0.237,-0Z" style="fill-rule:nonzero;"/>
            </g>
            <g transform="matrix(150.813,0,0,150.813,671.543,235.996)">
                <path d="M0.297,0.013C0.458,0.013 0.574,-0.109 0.574,-0.259C0.574,-0.409 0.458,-0.532 0.297,-0.532C0.136,-0.532 0.02,-0.409 0.02,-0.259C0.02,-0.109 0.136,0.013 0.297,0.013ZM0.155,-0.259C0.155,-0.34 0.211,-0.409 0.297,-0.409C0.383,-0.409 0.439,-0.34 0.439,-0.259C0.439,-0.178 0.383,-0.11 0.297,-0.11C0.211,-0.11 0.155,-0.178 0.155,-0.259Z" style="fill-rule:nonzero;"/>
            </g>
        </g>
        <g transform="matrix(0.988498,0,0,0.988498,269.789,-74.4542)">
            <g transform="matrix(62.9722,0,0,62.9722,1358.02,765.826)">
                <path d="M0.091,-0.389L0.16,-0.714L0.139,-0.714L-0.012,-0L0.008,-0L0.04,-0.148L0.042,-0.148C0.046,-0.101 0.064,-0.062 0.095,-0.033C0.126,-0.004 0.167,0.011 0.218,0.011C0.263,0.011 0.303,0.001 0.336,-0.02C0.369,-0.04 0.397,-0.066 0.419,-0.099C0.441,-0.131 0.458,-0.167 0.469,-0.208C0.48,-0.248 0.485,-0.288 0.485,-0.328C0.485,-0.355 0.481,-0.38 0.474,-0.404C0.467,-0.428 0.456,-0.449 0.441,-0.467C0.426,-0.485 0.407,-0.499 0.385,-0.51C0.362,-0.521 0.336,-0.526 0.306,-0.526C0.282,-0.526 0.259,-0.523 0.238,-0.516C0.216,-0.509 0.196,-0.499 0.178,-0.486C0.16,-0.473 0.144,-0.459 0.13,-0.442C0.115,-0.425 0.103,-0.407 0.093,-0.387L0.091,-0.389ZM0.465,-0.328C0.465,-0.292 0.46,-0.255 0.45,-0.218C0.44,-0.18 0.425,-0.146 0.404,-0.115C0.383,-0.084 0.358,-0.058 0.327,-0.038C0.296,-0.018 0.26,-0.008 0.218,-0.008C0.192,-0.008 0.169,-0.013 0.148,-0.022C0.127,-0.031 0.11,-0.044 0.096,-0.061C0.082,-0.078 0.071,-0.098 0.065,-0.121C0.057,-0.144 0.054,-0.17 0.055,-0.198C0.056,-0.232 0.062,-0.267 0.073,-0.304C0.084,-0.34 0.101,-0.373 0.122,-0.403C0.143,-0.433 0.169,-0.458 0.2,-0.477C0.231,-0.496 0.266,-0.506 0.306,-0.506C0.332,-0.506 0.355,-0.501 0.375,-0.493C0.394,-0.484 0.411,-0.471 0.424,-0.455C0.437,-0.439 0.448,-0.42 0.455,-0.399C0.462,-0.377 0.465,-0.353 0.465,-0.328Z" style="fill-rule:nonzero;"/>
            </g>
            <g transform="matrix(62.9722,0,0,62.9722,1391.84,765.826)">
                <path d="M0.433,-0.273L0.031,-0.273C0.037,-0.305 0.047,-0.335 0.06,-0.363C0.073,-0.391 0.089,-0.416 0.109,-0.437C0.129,-0.458 0.153,-0.475 0.18,-0.488C0.207,-0.5 0.238,-0.506 0.272,-0.506C0.3,-0.506 0.324,-0.501 0.345,-0.492C0.366,-0.482 0.383,-0.469 0.397,-0.453C0.411,-0.436 0.421,-0.417 0.428,-0.395C0.435,-0.373 0.438,-0.35 0.438,-0.326C0.438,-0.316 0.438,-0.307 0.437,-0.299C0.436,-0.291 0.435,-0.282 0.433,-0.273ZM0.027,-0.253L0.454,-0.253C0.455,-0.267 0.456,-0.28 0.457,-0.291C0.458,-0.302 0.458,-0.313 0.458,-0.326C0.458,-0.354 0.454,-0.38 0.446,-0.405C0.438,-0.429 0.426,-0.45 0.411,-0.468C0.396,-0.486 0.376,-0.5 0.353,-0.511C0.33,-0.521 0.303,-0.526 0.272,-0.526C0.227,-0.526 0.188,-0.517 0.155,-0.498C0.121,-0.478 0.093,-0.454 0.071,-0.423C0.048,-0.392 0.032,-0.357 0.021,-0.318C0.01,-0.279 0.004,-0.239 0.004,-0.199C0.004,-0.17 0.008,-0.142 0.016,-0.117C0.023,-0.091 0.035,-0.069 0.051,-0.05C0.067,-0.031 0.087,-0.016 0.111,-0.005C0.135,0.006 0.163,0.011 0.195,0.011C0.258,0.011 0.308,-0.004 0.347,-0.035C0.385,-0.066 0.412,-0.11 0.427,-0.169L0.406,-0.169C0.391,-0.113 0.365,-0.072 0.329,-0.047C0.293,-0.021 0.248,-0.008 0.194,-0.008C0.178,-0.008 0.16,-0.011 0.141,-0.016C0.121,-0.021 0.102,-0.03 0.085,-0.044C0.068,-0.057 0.053,-0.076 0.042,-0.101C0.03,-0.126 0.024,-0.158 0.024,-0.198C0.024,-0.22 0.025,-0.238 0.027,-0.253Z" style="fill-rule:nonzero;"/>
            </g>
            <g transform="matrix(62.9722,0,0,62.9722,1423.32,765.826)">
                <path d="M0.156,-0.676L0.122,-0.514L0.025,-0.514L0.021,-0.494L0.118,-0.494L0.037,-0.113C0.036,-0.103 0.034,-0.093 0.032,-0.084C0.03,-0.074 0.029,-0.064 0.029,-0.054C0.029,-0.042 0.031,-0.032 0.036,-0.025C0.04,-0.017 0.046,-0.011 0.053,-0.007C0.06,-0.003 0.069,-0 0.078,0.001C0.087,0.002 0.097,0.003 0.107,0.003C0.116,0.003 0.126,0.003 0.135,0.002C0.143,0.001 0.153,0.001 0.162,-0L0.166,-0.02C0.155,-0.017 0.139,-0.016 0.118,-0.016C0.111,-0.016 0.103,-0.016 0.095,-0.017C0.086,-0.017 0.079,-0.018 0.072,-0.021C0.065,-0.023 0.06,-0.027 0.056,-0.033C0.051,-0.039 0.049,-0.048 0.049,-0.06C0.05,-0.07 0.051,-0.08 0.053,-0.09C0.055,-0.1 0.057,-0.11 0.059,-0.119L0.139,-0.494L0.251,-0.494L0.255,-0.514L0.143,-0.514L0.177,-0.676L0.156,-0.676Z" style="fill-rule:nonzero;"/>
            </g>
            <g transform="matrix(62.9722,0,0,62.9722,1438.5,765.826)">
                <path d="M0.059,-0.365L0.079,-0.365C0.09,-0.41 0.112,-0.444 0.144,-0.47C0.175,-0.495 0.217,-0.507 0.269,-0.506C0.289,-0.506 0.307,-0.504 0.324,-0.501C0.341,-0.498 0.355,-0.492 0.367,-0.484C0.379,-0.475 0.389,-0.464 0.396,-0.451C0.403,-0.437 0.406,-0.419 0.406,-0.398C0.406,-0.374 0.403,-0.355 0.397,-0.34C0.39,-0.325 0.381,-0.314 0.37,-0.305C0.358,-0.296 0.344,-0.291 0.329,-0.288C0.314,-0.285 0.297,-0.283 0.279,-0.283C0.267,-0.283 0.255,-0.283 0.243,-0.283C0.23,-0.282 0.217,-0.282 0.204,-0.281C0.175,-0.281 0.148,-0.279 0.121,-0.275C0.094,-0.27 0.071,-0.262 0.05,-0.25C0.029,-0.238 0.013,-0.221 0,-0.2C-0.013,-0.178 -0.019,-0.15 -0.019,-0.115C-0.019,-0.092 -0.015,-0.073 -0.007,-0.057C0.002,-0.041 0.013,-0.028 0.027,-0.018C0.041,-0.008 0.057,-0.001 0.076,0.004C0.094,0.009 0.113,0.011 0.133,0.011C0.183,0.011 0.225,0.002 0.258,-0.017C0.291,-0.036 0.319,-0.065 0.343,-0.105L0.345,-0.105C0.343,-0.096 0.341,-0.088 0.339,-0.081C0.336,-0.073 0.335,-0.062 0.335,-0.049C0.335,-0.014 0.352,0.003 0.387,0.003C0.399,0.003 0.41,0.002 0.421,-0L0.421,-0.02C0.412,-0.017 0.401,-0.016 0.386,-0.016C0.378,-0.016 0.371,-0.018 0.365,-0.022C0.358,-0.026 0.355,-0.035 0.355,-0.049C0.355,-0.056 0.355,-0.063 0.356,-0.068C0.357,-0.073 0.358,-0.078 0.359,-0.084L0.418,-0.335C0.42,-0.345 0.422,-0.355 0.424,-0.365C0.425,-0.375 0.426,-0.386 0.426,-0.398C0.426,-0.443 0.412,-0.475 0.384,-0.496C0.355,-0.516 0.317,-0.526 0.269,-0.526C0.215,-0.525 0.17,-0.513 0.134,-0.488C0.097,-0.463 0.072,-0.422 0.059,-0.365ZM0.386,-0.29L0.365,-0.201C0.358,-0.173 0.347,-0.147 0.335,-0.124C0.322,-0.1 0.305,-0.08 0.286,-0.063C0.267,-0.046 0.244,-0.032 0.219,-0.023C0.194,-0.013 0.165,-0.008 0.133,-0.008C0.115,-0.008 0.098,-0.01 0.082,-0.015C0.066,-0.019 0.052,-0.025 0.04,-0.034C0.027,-0.043 0.018,-0.054 0.011,-0.067C0.004,-0.08 0,-0.096 0,-0.115C0,-0.146 0.006,-0.171 0.019,-0.191C0.031,-0.21 0.047,-0.224 0.066,-0.234C0.085,-0.244 0.107,-0.251 0.132,-0.255C0.156,-0.258 0.18,-0.261 0.205,-0.262C0.22,-0.262 0.236,-0.262 0.254,-0.263C0.272,-0.263 0.29,-0.264 0.307,-0.266C0.324,-0.268 0.339,-0.271 0.353,-0.275C0.367,-0.279 0.377,-0.285 0.384,-0.292L0.386,-0.29Z" style="fill-rule:nonzero;"/>
            </g>
        </g>
        <g transform="matrix(0.145842,0,0,0.145842,183.218,385.329)">
            <path d="M1663,512C1715.67,512 1765.33,522 1812,542C1858.67,562 1899.33,589.333 1934,624C1968.67,658.667 1996.33,699.667 2017,747C2037.67,794.333 2047.67,844 2047,896C2047,949.333 2037,999 2017,1045C1997,1091 1969.67,1131.67 1935,1167C1900.33,1202.33 1859.33,1230 1812,1250C1764.67,1270 1715,1280 1663,1280L1560,1280C1530.67,1331.33 1495.67,1378.67 1455,1422C1414.33,1465.33 1369.33,1503.33 1320,1536L1599,1536C1616.33,1536 1631.33,1542.33 1644,1555C1656.67,1567.67 1663,1582.67 1663,1600C1663,1617.33 1656.67,1632.33 1644,1645C1631.33,1657.67 1616.33,1664 1599,1664L191,1664C173.667,1664 158.667,1657.67 146,1645C133.333,1632.33 127,1617.33 127,1600C127,1582.67 133.333,1567.67 146,1555C158.667,1542.33 173.667,1536 191,1536L470,1536C416,1500 368,1458.67 326,1412C284,1365.33 248,1314.67 218,1260C188,1205.33 165.667,1147 151,1085C136.333,1023 128.333,960 127,896L127,512L1663,512ZM895,1536C953.667,1536 1010.33,1528.33 1065,1513C1119.67,1497.67 1170.67,1476.33 1218,1449C1265.33,1421.67 1308.33,1388.33 1347,1349C1385.67,1309.67 1419,1266.33 1447,1219C1475,1171.67 1496.67,1120.67 1512,1066C1527.33,1011.33 1535,954.667 1535,896L1535,640L255,640L255,896C255,954.667 262.667,1011.33 278,1066C293.333,1120.67 314.667,1171.67 342,1219C369.333,1266.33 402.667,1309.33 442,1348C481.333,1386.67 524.667,1420 572,1448C619.333,1476 670.333,1497.67 725,1513C779.667,1528.33 836.333,1536 895,1536M1663,1152C1698.33,1152 1731.33,1145.33 1762,1132C1792.67,1118.67 1820,1100.33 1844,1077C1868,1053.67 1886.33,1026.67 1899,996C1911.67,965.333 1918.33,932 1919,896C1919,860.667 1912.33,827.667 1899,797C1885.67,766.333 1867.33,739 1844,715C1820.67,691 1793.67,672.667 1763,660C1732.33,647.333 1699,640.667 1663,640C1663,683.333 1663.33,726.667 1664,770C1664.67,813.333 1664.33,856.333 1663,899C1661.67,941.667 1657.67,984 1651,1026C1644.33,1068 1633.67,1110 1619,1152L1663,1152Z" style="fill-rule:nonzero;"/>
        </g>
        <g transform="matrix(4.14915,0,0,4.14915,-4295.28,-253.898)">
            <g transform="matrix(1,0,0,1,1119.69,140.806)">
                <path d="M4.5,16.5C3,17.76 2.5,21.5 2.5,21.5C2.5,21.5 6.24,21 7.5,19.5C8.21,18.66 8.2,17.37 7.41,16.59C6.609,15.826 5.347,15.787 4.5,16.5Z" style="fill:none;fill-rule:nonzero;stroke:black;stroke-width:2px;"/>
            </g>
            <g transform="matrix(1,0,0,1,1119.69,140.806)">
                <path d="M12,15L9,12C9.532,10.619 10.202,9.296 11,8.05C13.367,4.266 17.537,1.972 22,2C22,4.72 21.22,9.5 16,13C14.737,13.799 13.397,14.469 12,15Z" style="fill:none;fill-rule:nonzero;stroke:black;stroke-width:2px;"/>
            </g>
            <g transform="matrix(1,0,0,1,1119.69,140.806)">
                <path d="M9,12L4,12C4,12 4.55,8.97 6,8C7.62,6.92 11,8 11,8" style="fill:none;fill-rule:nonzero;stroke:black;stroke-width:2px;"/>
            </g>
            <g transform="matrix(1,0,0,1,1119.69,140.806)">
                <path d="M12,15L12,20C12,20 15.03,19.45 16,18C17.08,16.38 16,13 16,13" style="fill:none;fill-rule:nonzero;stroke:black;stroke-width:2px;"/>
            </g>
        </g>
        <g transform="matrix(1.09253,-0.0732801,-0.0727922,1.0583,18.2588,-16.0358)">
            <path d="M273.572,481.256L341.71,406.706" style="fill:none;stroke:black;stroke-width:3.99px;stroke-miterlimit:1.5;"/>
        </g>
        <g transform="matrix(1.07115,-0.0528858,-0.0528858,1.03931,46.9015,10.3407)">
            <path d="M287.31,460L341.71,406.706" style="fill:none;stroke:black;stroke-width:3.99px;stroke-miterlimit:1.5;"/>
        </g>
    </g>
</svg>
